<?xml version="1.0" encoding="UTF-8" standalone="no"?>
<!DOCTYPE svg PUBLIC "-//W3C//DTD SVG 1.1//EN" "http://www.w3.org/Graphics/SVG/1.1/DTD/svg11.dtd">
<svg width="100%" height="100%" viewBox="0 0 20 20" version="1.1" xmlns="http://www.w3.org/2000/svg" xmlns:xlink="http://www.w3.org/1999/xlink" xml:space="preserve" xmlns:serif="http://www.serif.com/" style="fill-rule:evenodd;clip-rule:evenodd;stroke-linejoin:round;stroke-miterlimit:2;">
    <g transform="matrix(0.169229,0,0,0.169229,77.7583,77.7607)">
        <g transform="matrix(1,0,0,1,-532.703,-526.12)">
            <path d="M165.554,86.878C167.426,86.878 169.114,87.624 170.338,88.862C171.562,90.086 172.322,91.774 172.322,93.646C172.322,95.503 171.562,97.191 170.338,98.415C170.282,98.472 170.225,98.514 170.169,98.57C168.959,99.71 167.341,100.399 165.554,100.399C163.697,100.399 162.009,99.653 160.785,98.415L160.771,98.401C159.547,97.177 158.787,95.503 158.787,93.646C158.787,91.789 159.547,90.1 160.771,88.876L160.771,88.862C161.995,87.638 163.683,86.878 165.554,86.878Z" style="fill:none;fill-rule:nonzero;stroke:rgb(46,119,156);stroke-width:5px;"/>
        </g>
        <g transform="matrix(3.56016,0,0,3.56016,-989.793,-733.776)">
            <path d="M165.554,86.878C167.426,86.878 169.114,87.624 170.338,88.862C171.562,90.086 172.322,91.774 172.322,93.646C172.322,95.503 171.562,97.191 170.338,98.415C170.282,98.472 170.225,98.514 170.169,98.57C168.959,99.71 167.341,100.399 165.554,100.399C163.697,100.399 162.009,99.653 160.785,98.415L160.771,98.401C159.547,97.177 158.787,95.503 158.787,93.646C158.787,91.789 159.547,90.1 160.771,88.876L160.771,88.862C161.995,87.638 163.683,86.878 165.554,86.878Z" style="fill:none;fill-rule:nonzero;stroke:rgb(46,119,156);stroke-width:2.49px;"/>
        </g>
        <g transform="matrix(6.41078,0,0,6.41078,-463.295,-464.701)">
            <path d="M19.029,5.42C19.029,2.877 16.964,0.812 14.421,0.812L5.203,0.812C2.66,0.812 0.594,2.877 0.594,5.42L0.594,14.638C0.594,17.181 2.66,19.247 5.203,19.247L14.421,19.247C16.964,19.247 19.029,17.181 19.029,14.638L19.029,5.42ZM17.437,5.42L17.437,14.638C17.437,16.303 16.085,17.654 14.421,17.654C14.421,17.654 5.203,17.654 5.203,17.654C3.538,17.654 2.187,16.303 2.187,14.638L2.187,5.42C2.187,3.756 3.538,2.404 5.203,2.404L14.421,2.404C16.085,2.404 17.437,3.756 17.437,5.42Z" style="fill:rgb(46,119,156);"/>
        </g>
    </g>
</svg>
